<?xml version="1.0" encoding="UTF-8" standalone="no"?>
<!-- Generator: Adobe Illustrator 18.0.0, SVG Export Plug-In . SVG Version: 6.00 Build 0)  -->

<svg
   xmlns:dc="http://purl.org/dc/elements/1.1/"
   xmlns:cc="http://creativecommons.org/ns#"
   xmlns:rdf="http://www.w3.org/1999/02/22-rdf-syntax-ns#"
   xmlns:svg="http://www.w3.org/2000/svg"
   xmlns="http://www.w3.org/2000/svg"
   xmlns:sodipodi="http://sodipodi.sourceforge.net/DTD/sodipodi-0.dtd"
   xmlns:inkscape="http://www.inkscape.org/namespaces/inkscape"
   version="1.1"
   id="Layer_1"
   x="0px"
   y="0px"
   width="308.7px"
   height="61.6px"
   viewBox="0 0 308.7 61.6"
   enable-background="new 0 0 308.7 61.6"
   xml:space="preserve"
   inkscape:version="0.91 r13725"
   sodipodi:docname="google_analytics.svg"><metadata
     id="metadata45"><rdf:RDF><cc:Work
         rdf:about=""><dc:format>image/svg+xml</dc:format><dc:type
           rdf:resource="http://purl.org/dc/dcmitype/StillImage" /><dc:title></dc:title></cc:Work></rdf:RDF></metadata><defs
     id="defs43" /><sodipodi:namedview
     pagecolor="#ffffff"
     bordercolor="#666666"
     borderopacity="1"
     objecttolerance="10"
     gridtolerance="10"
     guidetolerance="10"
     inkscape:pageopacity="0"
     inkscape:pageshadow="2"
     inkscape:window-width="1352"
     inkscape:window-height="625"
     id="namedview41"
     showgrid="false"
     inkscape:zoom="7.1572423"
     inkscape:cx="41.306001"
     inkscape:cy="29.633898"
     inkscape:window-x="0"
     inkscape:window-y="0"
     inkscape:window-maximized="0"
     inkscape:current-layer="Layer_1" /><g
     id="g3"
     style="fill:#ffffff"><path
       fill-rule="evenodd"
       clip-rule="evenodd"
       fill="#75787D"
       d="M183.1,43.3c-0.4,0.2-0.9,0.5-1.3,0.7c-1.3,0.6-2.6,0.7-3.8,0.7   c-1.3,0-3.2-0.1-5.2-1.5c-2.8-2-4-5.4-4-8.3c0-6.1,5-9.1,9-9.1c1.4,0,2.9,0.4,4.1,1.1c2,1.3,2.5,3,2.8,3.9l-9.3,3.7l-3,0.2   c1,5,4.4,7.9,8.1,7.9c2,0,3.5-0.7,4.8-1.4L183.1,43.3L183.1,43.3z M179.4,31.5c0.7-0.3,1.1-0.5,1.1-1.1c0-1.6-1.8-3.4-3.9-3.4   c-1.6,0-4.5,1.2-4.5,5.5c0,0.7,0.1,1.4,0.1,2.1L179.4,31.5L179.4,31.5z M167.8,44.2l1.5-0.9c-0.7-0.1-1.3-0.1-2-0.2   c-1.3-0.1-1.6-0.4-1.6-1.9v-9.1c0-5.6,0-10.4,0.4-13.4c0.2-1.4,0.6-1.6,1.8-2.3h-5.6l-3,1.4h3.1c0,1.8-0.2,4.3-0.2,6.3   c-0.1,4.1-0.2,8.5-0.2,11.5v6.4c0,0.8-0.2,0.9-1.1,2.1H167.8L167.8,44.2z M154.9,27.7c0.9,0.7,2.8,2.3,2.8,5.3   c0,2.9-1.7,4.3-3.3,5.6c-0.5,0.5-1.1,1.1-1.1,1.9c0,0.9,0.6,1.3,1,1.7l1.4,1.1c1.7,1.5,3.3,2.8,3.3,5.5c0,3.7-3.6,7.4-10.4,7.4   c-5.7,0-8.5-2.7-8.5-5.6c0-1.4,0.7-3.4,3-4.8c2.4-1.5,5.8-1.7,7.5-1.8c-0.6-0.7-1.2-1.5-1.2-2.7c0-0.7,0.2-1.1,0.4-1.5   c-0.4,0-0.9,0.1-1.3,0.1c-4.2,0-6.5-3.1-6.5-6.2c0-1.8,0.8-3.8,2.5-5.3c2.2-1.9,4.9-2.2,7.1-2.2h8.1l-2.5,1.4H154.9L154.9,27.7z    M152.1,45.2c-0.3,0-0.5,0-0.9,0c-0.4,0-2.5,0.1-4.1,0.6c-0.9,0.3-3.4,1.3-3.4,4.1c0,2.8,2.7,4.8,6.9,4.8c3.8,0,5.8-1.8,5.8-4.3   C156.4,48.4,155.1,47.3,152.1,45.2L152.1,45.2z M153.2,37.7c0.9-0.9,1-2.2,1-2.9c0-2.8-1.7-7.3-5-7.3c-1,0-2.1,0.5-2.8,1.3   c-0.7,0.8-0.9,1.9-0.9,2.9c0,2.6,1.5,7,4.9,7C151.5,38.8,152.6,38.4,153.2,37.7L153.2,37.7z M130.4,44.7c-6.3,0-9.6-4.9-9.6-9.3   c0-5.2,4.2-9.6,10.2-9.6c5.8,0,9.4,4.5,9.4,9.3C140.4,39.7,136.9,44.7,130.4,44.7L130.4,44.7z M135.4,41.5c0.9-1.3,1.2-2.8,1.2-4.4   c0-3.5-1.7-10.1-6.5-10.1c-1.3,0-2.6,0.5-3.5,1.3c-1.5,1.4-1.8,3.1-1.8,4.8c0,3.9,1.9,10.3,6.7,10.3   C132.9,43.5,134.5,42.7,135.4,41.5L135.4,41.5z M109.5,44.7c-6.3,0-9.6-4.9-9.6-9.3c0-5.2,4.2-9.6,10.2-9.6c5.8,0,9.4,4.5,9.4,9.3   C119.5,39.7,115.9,44.7,109.5,44.7L109.5,44.7z M114.4,41.5c0.9-1.3,1.2-2.8,1.2-4.4c0-3.5-1.7-10.1-6.5-10.1   c-1.3,0-2.6,0.5-3.5,1.3c-1.5,1.4-1.8,3.1-1.8,4.8c0,3.9,1.9,10.3,6.7,10.3C111.9,43.5,113.5,42.7,114.4,41.5L114.4,41.5z    M97.3,43.3v-4.5c0-0.4,0-1.4,0.1-1.8c0.1-0.3,0.1-0.4,0.4-0.6l1-0.9h-7.8l-3,1.6l5.6-0.3v5.9c-1.1,0.4-2.3,0.9-4.7,0.9   c-8.1,0-13.1-6.5-13.1-13.5c0-6.5,4.4-10.9,10.2-10.9c4.4,0,6.6,2.3,7.9,3.5L93,24.2l1.3-0.3l3.1-2.9c-0.8-0.6-2.1-1.5-4.9-2.3   c-1.7-0.5-3.7-0.8-5.7-0.8c-9.4,0-14.9,6.6-14.9,13.8c0,5.9,3.9,13.4,14.1,13.4c2,0,4-0.3,6.1-0.6L97.3,43.3L97.3,43.3z"
       id="path5"
       style="fill:#ffffff" /></g><g
     id="g9"
     style="fill:#ffffff"><path
       style="fill:#ffffff"
       inkscape:connector-curvature="0"
       id="path11"
       d="m 9.8,10.1 0,28.4 12.9,-13.2 11.4,11.4 24.1,-24.1 0,-2.2 c 0,-2.1 -1.7,-3.7 -3.7,-3.7 -9.1,0 -32.5,0.1 -41.3,0 -1.9,0 -3.4,1.5 -3.4,3.4 z" /></g><g
     id="g13"
     style="fill:#1a1a1a"><polygon
       style="fill:#1a1a1a"
       id="polygon15"
       points="28.4,42.7 28.4,30.9 22.6,36.8 " /></g><g
     id="g17"
     style="fill:#b3b3b3"><path
       style="fill:#b3b3b3"
       inkscape:connector-curvature="0"
       id="path19"
       d="m 9.7,49.6 0,2 c 0,1.9 1.6,3.5 3.5,3.5 l 41.6,0 c 1.9,0 3.4,-1.5 3.4,-3.4 L 58.2,24 34.1,48.1 22.7,36.7 c 0,0 -12.9,13 -13,12.9 z" /></g><g
     id="g21"
     style="fill:#ffffff"><path
       fill="#75787D"
       d="M207.5,36.2h-8.6l-3,7.5h-1.6l8.6-21.3h0.9l8.4,21.3h-1.7L207.5,36.2z M199.4,34.9h7.6l-2.9-7.7   c-0.2-0.6-0.5-1.4-0.9-2.5c-0.3,0.9-0.5,1.8-0.9,2.5L199.4,34.9z"
       id="path23"
       style="fill:#ffffff" /><path
       fill="#75787D"
       d="M225.8,43.7V33.5c0-1.6-0.3-2.7-1-3.5s-1.7-1.1-3.1-1.1c-1.9,0-3.3,0.5-4.2,1.4c-0.9,1-1.3,2.5-1.3,4.6v8.7   h-1.4V27.9h1.2l0.3,2.2h0.1c1-1.6,2.9-2.5,5.5-2.5c3.6,0,5.4,1.9,5.4,5.8v10.3H225.8z"
       id="path25"
       style="fill:#ffffff" /><path
       fill="#75787D"
       d="M240.7,43.7l-0.4-2.5h-0.1c-0.8,1-1.6,1.7-2.5,2.2c-0.8,0.4-1.8,0.6-3,0.6c-1.6,0-2.8-0.4-3.6-1.2   c-0.9-0.8-1.3-1.9-1.3-3.3c0-1.5,0.6-2.7,1.9-3.6c1.3-0.9,3.1-1.3,5.6-1.4l3-0.1v-1c0-1.5-0.3-2.6-0.9-3.4c-0.6-0.8-1.6-1.1-3-1.1   c-1.5,0-3,0.4-4.6,1.2l-0.5-1.3c1.7-0.8,3.5-1.2,5.1-1.2c1.7,0,3,0.5,3.9,1.4c0.9,0.9,1.3,2.3,1.3,4.2v10.5H240.7z M234.9,42.7   c1.7,0,3-0.5,4-1.4s1.5-2.3,1.5-4v-1.6l-2.8,0.1c-2.2,0.1-3.8,0.5-4.7,1c-0.9,0.6-1.4,1.5-1.4,2.7c0,1,0.3,1.8,0.9,2.3   C233,42.4,233.8,42.7,234.9,42.7z"
       id="path27"
       style="fill:#ffffff" /><path
       fill="#75787D"
       d="M247.8,43.7h-1.4V21.1h1.4V43.7z"
       id="path29"
       style="fill:#ffffff" /><path
       fill="#75787D"
       d="M249.8,27.9h1.5l3.3,8.9c1,2.7,1.7,4.6,1.9,5.5h0.1c0.4-1.2,1.1-3.1,2-5.6l3.3-8.8h1.5l-7.1,18.4   c-0.6,1.5-1.1,2.5-1.4,3s-0.8,0.9-1.4,1.2c-0.5,0.3-1.1,0.4-1.9,0.4c-0.6,0-1.2-0.1-1.8-0.3v-1.3c0.6,0.2,1.2,0.2,1.8,0.2   c0.5,0,0.9-0.1,1.3-0.3c0.4-0.2,0.7-0.6,1-1.1c0.3-0.5,0.7-1.3,1.1-2.3s0.7-1.8,0.8-2.1L249.8,27.9z"
       id="path31"
       style="fill:#ffffff" /><path
       fill="#75787D"
       d="M271.5,42.7c0.9,0,1.7-0.1,2.4-0.2v1.2c-0.7,0.2-1.5,0.3-2.4,0.3c-1.4,0-2.4-0.4-3.1-1.1   c-0.7-0.7-1-1.9-1-3.5V29.2H265v-0.8l2.3-0.7l0.7-3.6h0.7v3.8h4.6v1.3h-4.6v10c0,1.2,0.2,2.1,0.6,2.7   C269.9,42.4,270.6,42.7,271.5,42.7z"
       id="path33"
       style="fill:#ffffff" /><path
       fill="#75787D"
       d="M275.9,23.5c0-0.9,0.3-1.4,0.9-1.4c0.3,0,0.5,0.1,0.7,0.4c0.2,0.2,0.3,0.6,0.3,1c0,0.4-0.1,0.8-0.3,1   c-0.2,0.3-0.4,0.4-0.7,0.4C276.2,24.9,275.9,24.5,275.9,23.5z M277.6,43.7h-1.4V27.9h1.4V43.7z"
       id="path35"
       style="fill:#ffffff" /><path
       fill="#75787D"
       d="M287.4,44c-2.3,0-4-0.7-5.3-2.1c-1.3-1.4-1.9-3.4-1.9-6c0-2.6,0.7-4.7,2-6.1s3.1-2.2,5.5-2.2   c1.4,0,2.7,0.2,3.9,0.7l-0.4,1.3c-1.4-0.5-2.6-0.7-3.6-0.7c-1.9,0-3.4,0.6-4.4,1.8c-1,1.2-1.5,2.9-1.5,5.2c0,2.1,0.5,3.8,1.5,5   c1,1.2,2.4,1.8,4.2,1.8c1.4,0,2.8-0.3,4-0.8v1.3C290.3,43.8,289,44,287.4,44z"
       id="path37"
       style="fill:#ffffff" /><path
       fill="#75787D"
       d="M304.4,39.6c0,1.4-0.5,2.5-1.6,3.3c-1.1,0.8-2.6,1.1-4.6,1.1c-2.1,0-3.8-0.3-5-1v-1.6   c1.6,0.8,3.3,1.2,5,1.2c1.6,0,2.7-0.3,3.6-0.8s1.2-1.2,1.2-2.1c0-0.8-0.3-1.5-1-2c-0.6-0.5-1.7-1.1-3.2-1.6   c-1.6-0.6-2.7-1.1-3.3-1.5c-0.6-0.4-1.1-0.9-1.4-1.4c-0.3-0.5-0.5-1.2-0.5-1.9c0-1.2,0.5-2.1,1.5-2.8c1-0.7,2.4-1,4.2-1   c1.7,0,3.3,0.3,4.9,1l-0.5,1.3c-1.6-0.6-3-1-4.3-1c-1.3,0-2.3,0.2-3.1,0.6c-0.8,0.4-1.1,1-1.1,1.8c0,0.8,0.3,1.5,0.9,2   c0.6,0.5,1.7,1,3.4,1.7c1.4,0.5,2.5,1,3.1,1.4s1.1,0.9,1.5,1.4C304.3,38.3,304.4,38.9,304.4,39.6z"
       id="path39"
       style="fill:#ffffff" /></g></svg>